<?xml version="1.0" encoding="UTF-8" standalone="no"?>
<!DOCTYPE svg PUBLIC "-//W3C//DTD SVG 1.1//EN" "http://www.w3.org/Graphics/SVG/1.1/DTD/svg11.dtd">
<svg width="100%" height="100%" viewBox="0 0 40 40" version="1.1" xmlns="http://www.w3.org/2000/svg" xmlns:xlink="http://www.w3.org/1999/xlink" xml:space="preserve" xmlns:serif="http://www.serif.com/" style="fill-rule:evenodd;clip-rule:evenodd;stroke-linejoin:round;stroke-miterlimit:2;">
    <path d="M9.716,9.832L6.874,10.818C6.874,10.818 7.079,9.565 6.861,8.558C6.642,7.551 5.964,5.676 5.816,4.105C5.667,2.535 5.878,0.473 6.124,0.342C6.369,0.21 6.876,-0.148 7.215,0C7.553,0.148 6.732,2.551 7.121,3.803C7.509,5.056 8.424,8.324 10.834,8.645C13.243,8.965 9.716,9.832 9.716,9.832Z" style="fill:rgb(32,46,8);"/>
    <path d="M9.566,9.865C9.566,9.865 7.414,7.495 7.054,6.381C6.693,5.268 6.46,3.289 6.467,1.579C6.47,1.086 6.754,1.459 6.754,1.459C6.754,1.459 6.654,4.786 7.378,6.348C8.099,7.903 10.789,9.367 10.789,9.367L9.566,9.865Z" style="fill:rgb(32,85,8);"/>
    <path d="M9.578,9.362C9.578,9.362 7.07,9.472 6.19,11.298C4.794,14.19 4.921,15.952 9.901,20.754C13.391,24.119 15.176,26.032 17.588,27.999C20.001,29.967 20.041,30.619 23.47,32.053C26.898,33.487 29.14,34.061 30.71,35.569C32.281,37.077 33.058,39.904 33.72,39.714C34.325,39.541 34.974,35.461 32.832,33.282C30.69,31.102 27.38,28.441 25.146,25.496C22.912,22.55 21.687,20.494 19.923,17.587C18.831,15.788 15.971,9.262 14.65,8.214C13.226,7.084 10.788,7.183 9.578,9.362Z" style="fill:rgb(179,4,13);"/>
</svg>
