<?xml version="1.0" encoding="UTF-8" standalone="no"?><!DOCTYPE svg PUBLIC "-//W3C//DTD SVG 1.1//EN" "http://www.w3.org/Graphics/SVG/1.1/DTD/svg11.dtd"><svg width="100%" height="100%" viewBox="0 0 141 141" version="1.1" xmlns="http://www.w3.org/2000/svg" xmlns:xlink="http://www.w3.org/1999/xlink" xml:space="preserve" xmlns:serif="http://www.serif.com/" style="fill-rule:evenodd;clip-rule:evenodd;stroke-linecap:round;stroke-linejoin:round;stroke-miterlimit:1.5;"><circle cx="70.059" cy="70.059" r="70.059" style="fill:url(#_Linear1);"/><path d="M68.244,71.104c0,0 -12.163,-11.955 -11.713,-14.992c0.451,-3.054 5.147,-6.341 5.479,-8.546c0.491,-3.263 -9.754,-12.296 -12.58,-12.607c-2.568,-0.282 -12.483,8.918 -13.478,13.702c-0.843,4.054 0.45,15.658 21.863,34.756l0.951,0.847c21.413,19.098 33.089,19.06 37.021,17.76c4.639,-1.534 12.649,-12.433 12.076,-14.951c-0.631,-2.773 -10.772,-11.922 -13.959,-11.062c-2.152,0.581 -4.883,5.621 -7.865,6.418c-2.967,0.792 -16.23,-9.929 -16.23,-9.929l-1.565,-1.396Z" style="fill:none;stroke:#fff;stroke-width:6px;"/><defs><linearGradient id="_Linear1" x1="0" y1="0" x2="1" y2="0" gradientUnits="userSpaceOnUse" gradientTransform="matrix(14.8665,-165.971,165.971,14.8665,74.2627,155.442)"><stop offset="0" style="stop-color:#0e5342;stop-opacity:1"/><stop offset="0.45" style="stop-color:#1faf8c;stop-opacity:1"/><stop offset="1" style="stop-color:#23c8a0;stop-opacity:1"/></linearGradient></defs></svg>