<?xml version="1.0" encoding="UTF-8" standalone="no"?>
<!DOCTYPE svg PUBLIC "-//W3C//DTD SVG 1.1//EN" "http://www.w3.org/Graphics/SVG/1.1/DTD/svg11.dtd">
<svg width="100%" height="100%" viewBox="0 0 100 100" version="1.1" xmlns="http://www.w3.org/2000/svg" xmlns:xlink="http://www.w3.org/1999/xlink" xml:space="preserve" xmlns:serif="http://www.serif.com/" style="fill-rule:evenodd;clip-rule:evenodd;stroke-linecap:round;stroke-linejoin:round;stroke-miterlimit:1.5;">
    <g transform="matrix(0.986721,0,0,0.986721,2.15528,-2.07671)">
        <g transform="matrix(1,0,0,1,-1,0)">
            <path d="M43,63L51,63" style="fill:none;stroke:rgb(251,3,3);stroke-width:2.96px;"/>
        </g>
        <g transform="matrix(1,0,0,1,14,0)">
            <path d="M43,63L51,63" style="fill:none;stroke:rgb(251,3,3);stroke-width:2.96px;"/>
        </g>
        <g transform="matrix(1,0,0,1,29,0)">
            <path d="M43,63L51,63" style="fill:none;stroke:rgb(251,3,3);stroke-width:2.96px;"/>
        </g>
        <path d="M87,32.096C87,29.685 85.043,27.728 82.632,27.728L14.345,27.728C11.934,27.728 9.977,29.685 9.977,32.096L9.977,75.632C9.977,78.043 11.934,80 14.345,80L82.632,80C85.043,80 87,78.043 87,75.632L87,32.096Z" style="fill:none;stroke:rgb(251,3,3);stroke-width:2.96px;"/>
        <path d="M9.977,36L87,36" style="fill:none;stroke:rgb(251,3,3);stroke-width:2.96px;"/>
        <g transform="matrix(1,0,0,1,0,8)">
            <path d="M9.977,36L87,36" style="fill:none;stroke:rgb(251,3,3);stroke-width:2.96px;"/>
        </g>
        <g transform="matrix(-1,0,0,1,57,0)">
            <circle cx="27" cy="63" r="6" style="fill:none;stroke:rgb(251,3,3);stroke-width:2.96px;"/>
        </g>
        <g transform="matrix(-1,0,0,1,49,0)">
            <path d="M23.005,58.525C24.066,57.577 25.466,57 27,57C30.311,57 33,59.689 33,63C33,66.311 30.311,69 27,69C25.466,69 24.066,68.423 23.005,67.475" style="fill:none;stroke:rgb(251,3,3);stroke-width:2.96px;"/>
        </g>
    </g>
</svg>
