<?xml version="1.0" encoding="UTF-8" standalone="no"?>
<!DOCTYPE svg PUBLIC "-//W3C//DTD SVG 1.1//EN" "http://www.w3.org/Graphics/SVG/1.1/DTD/svg11.dtd">
<svg width="100%" height="100%" viewBox="0 0 100 100" version="1.1" xmlns="http://www.w3.org/2000/svg" xmlns:xlink="http://www.w3.org/1999/xlink" xml:space="preserve" xmlns:serif="http://www.serif.com/" style="fill-rule:evenodd;clip-rule:evenodd;stroke-linecap:round;stroke-linejoin:round;stroke-miterlimit:1.5;">
    <g transform="matrix(0.772735,0,0,0.772735,11.5904,12.1348)">
        <g transform="matrix(1,0,0,1,-1.5,0.5)">
            <circle cx="84.5" cy="59.5" r="1.5" style="fill:none;stroke:rgb(251,3,3);stroke-width:3.77px;"/>
        </g>
        <path d="M14,15L35,15" style="fill:none;stroke:rgb(251,3,3);stroke-width:3.77px;"/>
        <path d="M84,24L84,19C84,19 84.096,15 80,15L74,15" style="fill:none;stroke:rgb(251,3,3);stroke-width:3.77px;"/>
        <g transform="matrix(1,0,0,1,-14,38)">
            <path d="M28,55C24.137,55 21,51.863 21,48" style="fill:none;stroke:rgb(251,3,3);stroke-width:3.77px;"/>
        </g>
        <g transform="matrix(1,0,0,1,-14,-26)">
            <path d="M28,55C24.137,55 21,51.863 21,48C21,44.137 24.137,41 28,41" style="fill:none;stroke:rgb(251,3,3);stroke-width:3.77px;"/>
        </g>
        <path d="M14,29L84,29C84,29 89,28.829 89,33L89,50" style="fill:none;stroke:rgb(251,3,3);stroke-width:3.77px;"/>
        <g transform="matrix(1,0,0,1,-1,0)">
            <path d="M62,5L18,22" style="fill:none;stroke:rgb(251,3,3);stroke-width:3.77px;"/>
        </g>
        <path d="M36,22L72,9L76,22" style="fill:none;stroke:rgb(251,3,3);stroke-width:3.77px;"/>
        <path d="M7,22L7,86" style="fill:none;stroke:rgb(251,3,3);stroke-width:3.77px;"/>
        <path d="M14,93L85,93C85,93 89,93.26 89,89L89,75" style="fill:none;stroke:rgb(251,3,3);stroke-width:3.77px;"/>
        <path d="M95,55C95,52.24 92.76,50 90,50L76,50C73.24,50 71,52.24 71,55L71,65C71,67.76 73.24,70 76,70L90,70C92.76,70 95,67.76 95,65L95,55Z" style="fill:none;stroke:rgb(251,3,3);stroke-width:3.77px;"/>
    </g>
</svg>
