<?xml version="1.0" encoding="UTF-8" standalone="no"?>
<!DOCTYPE svg PUBLIC "-//W3C//DTD SVG 1.1//EN" "http://www.w3.org/Graphics/SVG/1.1/DTD/svg11.dtd">
<svg width="100%" height="100%" viewBox="0 0 100 100" version="1.1" xmlns="http://www.w3.org/2000/svg" xmlns:xlink="http://www.w3.org/1999/xlink" xml:space="preserve" xmlns:serif="http://www.serif.com/" style="fill-rule:evenodd;clip-rule:evenodd;stroke-linecap:round;stroke-linejoin:round;stroke-miterlimit:1.5;">
    <g transform="matrix(0.816112,0,0,0.816112,14.5517,8.78508)">
        <path d="M48,58L87.61,58C88.934,58 90.01,56.925 90.01,55.6L90.01,30.4C90.01,29.075 88.934,28 87.61,28L48,28" style="fill:none;stroke:rgb(251,3,3);stroke-width:3.57px;"/>
        <path d="M48,34L90.01,34" style="fill:none;stroke:rgb(251,3,3);stroke-width:3.57px;"/>
        <g transform="matrix(1,0,0,1,3,0)">
            <circle cx="76.5" cy="46.5" r="5.5" style="fill:none;stroke:rgb(251,3,3);stroke-width:3.57px;"/>
        </g>
        <g transform="matrix(1,0,0,1,-3.5,0)">
            <circle cx="76.5" cy="46.5" r="5.5" style="fill:none;stroke:rgb(251,3,3);stroke-width:3.57px;"/>
        </g>
        <path d="M25,18.905L35,18.905" style="fill:none;stroke:rgb(251,3,3);stroke-width:3.57px;"/>
        <path d="M17,13L35,13" style="fill:none;stroke:rgb(251,3,3);stroke-width:3.57px;"/>
        <path d="M9,28L42,28" style="fill:none;stroke:rgb(251,3,3);stroke-width:3.57px;"/>
        <path d="M48,23.405C48,20.922 45.984,18.905 43.5,18.905L41,18.905" style="fill:none;stroke:rgb(251,3,3);stroke-width:3.57px;"/>
        <path d="M11,18.905L7.5,18.905C5.016,18.905 3,20.922 3,23.405L3,88.503C3,90.987 5.016,93.003 7.5,93.003L43.5,93.003C45.984,93.003 48,90.987 48,88.503L48,23.405" style="fill:none;stroke:rgb(251,3,3);stroke-width:3.57px;"/>
        <g transform="matrix(1,0,0,1,-1,0)">
            <path d="M12,28L12,8L41,8L41,28" style="fill:none;stroke:rgb(251,3,3);stroke-width:3.57px;"/>
        </g>
        <g transform="matrix(0.983828,0,0,1,-1.7965,0)">
            <path d="M43.5,35.62C43.5,34.726 42.762,34 41.853,34L13.637,34C12.728,34 11.99,34.726 11.99,35.62L11.99,50.38C11.99,51.274 12.728,52 13.637,52L41.853,52C42.762,52 43.5,51.274 43.5,50.38L43.5,35.62Z" style="fill:none;stroke:rgb(251,3,3);stroke-width:3.6px;"/>
        </g>
        <g transform="matrix(0.847231,0,0,0.734953,1.52769,16.8305)">
            <rect x="10" y="55.954" width="6.49" height="7.546" style="fill:none;stroke:rgb(251,3,3);stroke-width:4.51px;"/>
        </g>
        <g transform="matrix(0.847231,0,0,0.734953,14.2783,16.8305)">
            <rect x="10" y="55.954" width="6.49" height="7.546" style="fill:none;stroke:rgb(251,3,3);stroke-width:4.51px;"/>
        </g>
        <g transform="matrix(0.847231,0,0,0.734953,27.0288,16.8305)">
            <rect x="10" y="55.954" width="6.49" height="7.546" style="fill:none;stroke:rgb(251,3,3);stroke-width:4.51px;"/>
        </g>
        <g transform="matrix(0.847231,0,0,0.734953,1.52769,28.3305)">
            <rect x="10" y="55.954" width="6.49" height="7.546" style="fill:none;stroke:rgb(251,3,3);stroke-width:4.51px;"/>
        </g>
        <g transform="matrix(0.847231,0,0,0.734953,14.2783,28.3305)">
            <rect x="10" y="55.954" width="6.49" height="7.546" style="fill:none;stroke:rgb(251,3,3);stroke-width:4.51px;"/>
        </g>
        <g transform="matrix(0.847231,0,0,0.734953,27.0288,28.3305)">
            <rect x="10" y="55.954" width="6.49" height="7.546" style="fill:none;stroke:rgb(251,3,3);stroke-width:4.51px;"/>
        </g>
        <g transform="matrix(0.847231,0,0,0.734953,1.52769,39.3305)">
            <rect x="10" y="55.954" width="6.49" height="7.546" style="fill:none;stroke:rgb(251,3,3);stroke-width:4.51px;"/>
        </g>
        <g transform="matrix(0.847231,0,0,0.734953,14.2783,39.3305)">
            <rect x="10" y="55.954" width="6.49" height="7.546" style="fill:none;stroke:rgb(251,3,3);stroke-width:4.51px;"/>
        </g>
        <g transform="matrix(0.847231,0,0,0.734953,27.0288,39.3305)">
            <rect x="10" y="55.954" width="6.49" height="7.546" style="fill:none;stroke:rgb(251,3,3);stroke-width:4.51px;"/>
        </g>
    </g>
</svg>
