<?xml version="1.0" encoding="UTF-8" standalone="no"?>
<!DOCTYPE svg PUBLIC "-//W3C//DTD SVG 1.1//EN" "http://www.w3.org/Graphics/SVG/1.1/DTD/svg11.dtd">
<svg width="100%" height="100%" viewBox="0 0 100 100" version="1.1" xmlns="http://www.w3.org/2000/svg" xmlns:xlink="http://www.w3.org/1999/xlink" xml:space="preserve" xmlns:serif="http://www.serif.com/" style="fill-rule:evenodd;clip-rule:evenodd;stroke-linecap:round;stroke-linejoin:round;stroke-miterlimit:1.5;">
    <g transform="matrix(1.08704,0,0,1.08704,-5.99614,4.88797)">
        <path d="M57,10L69,10" style="fill:none;stroke:rgb(251,3,3);stroke-width:2.68px;"/>
        <path d="M62.713,14L62.713,16" style="fill:none;stroke:rgb(251,3,3);stroke-width:2.68px;"/>
        <path d="M9,45.287L29,45.287" style="fill:none;stroke:rgb(251,3,3);stroke-width:2.68px;"/>
        <path d="M14,35.109L30,35.109" style="fill:none;stroke:rgb(251,3,3);stroke-width:2.68px;"/>
        <path d="M36,24L22,24" style="fill:none;stroke:rgb(251,3,3);stroke-width:2.68px;"/>
        <g transform="matrix(1,0,0,-1,0,90.5744)">
            <path d="M14,35.109L30,35.109" style="fill:none;stroke:rgb(251,3,3);stroke-width:2.68px;"/>
        </g>
        <g transform="matrix(1,0,0,-1,0,90.5744)">
            <path d="M36,24L22,24" style="fill:none;stroke:rgb(251,3,3);stroke-width:2.68px;"/>
        </g>
        <g transform="matrix(1,0,0,1,-0.913041,-0.356403)">
            <circle cx="63.626" cy="46.644" r="1.356" style="fill:none;stroke:rgb(251,3,3);stroke-width:2.68px;"/>
        </g>
        <g transform="matrix(1,0,0,1,-0.913041,1.28719)">
            <path d="M63.626,26.574L63.626,43.644" style="fill:none;stroke:rgb(251,3,3);stroke-width:2.68px;"/>
        </g>
        <g transform="matrix(0.963916,0,0,0.963916,-24.0225,-0.257585)">
            <circle cx="89.982" cy="48.287" r="27.713" style="fill:none;stroke:rgb(251,3,3);stroke-width:2.78px;"/>
        </g>
        <g transform="matrix(1,0,0,1,0,1)">
            <path d="M67,42L71,38" style="fill:none;stroke:rgb(251,3,3);stroke-width:2.68px;"/>
        </g>
    </g>
</svg>
